<?xml version="1.0" encoding="iso-8859-1"?>
<!-- Uploaded to: SVG Repo, www.svgrepo.com, Generator: SVG Repo Mixer Tools -->
<svg height="800px" width="800px" version="1.1" id="Layer_1" xmlns="http://www.w3.org/2000/svg" xmlns:xlink="http://www.w3.org/1999/xlink" 
	 viewBox="0 0 512 512" xml:space="preserve">
<path style="fill:#E6E7E8;" d="M443.919,248.134H63.774c-21.342,0-38.645-17.299-38.645-38.634V49.089
	c0-21.337,17.304-38.635,38.645-38.635h380.141c21.34,0,38.643,17.298,38.643,38.635v160.406
	C482.562,230.835,465.26,248.134,443.919,248.134z"/>
<path style="fill:#0084FF;" d="M501.394,462.882l-15.532-177.276l15.372-148.618c2.017-20.821-15.036-38.796-36.799-38.796H47.565
	c-21.762,0-38.814,17.979-36.8,38.796l15.371,148.618L10.601,462.882c-1.93,20.773,15.102,38.665,36.81,38.665h417.173
	C486.293,501.547,503.327,483.656,501.394,462.882z"/>
<path style="fill:#10BAFC;" d="M26.137,285.607L10.601,462.882c-1.93,20.773,15.102,38.665,36.81,38.665h417.173
	c21.707,0,38.742-17.891,36.81-38.665l-15.532-177.276H26.137z"/>
<path d="M511.804,461.97l-15.445-176.282l15.276-147.693c1.235-12.744-2.888-25.051-11.605-34.654
	c-2.13-2.347-4.49-4.447-7.022-6.301v-47.95c0-27.064-22.023-49.084-49.091-49.084H63.774c-27.071,0-49.094,22.019-49.094,49.084
	v51.53c-0.932,0.871-1.843,1.77-2.706,2.721c-8.719,9.603-12.842,21.911-11.602,34.721l15.269,147.625L0.197,461.916
	c-1.182,12.716,2.968,24.986,11.685,34.549c8.995,9.87,21.946,15.53,35.53,15.53h417.173c13.587,0,26.537-5.661,35.533-15.533
	C508.833,486.899,512.981,474.63,511.804,461.97z M35.577,49.089c0-15.543,12.648-28.187,28.196-28.187h380.141
	c15.547,0,28.194,12.644,28.194,28.187v39.262c-2.519-0.4-5.085-0.609-7.675-0.609H47.565c-4.084,0-8.108,0.521-11.988,1.505V49.089
	z M484.672,482.387c-5.046,5.536-12.367,8.711-20.088,8.711H47.411c-7.72,0-15.041-3.174-20.086-8.709
	c-4.707-5.165-6.952-11.749-6.316-18.594l14.699-167.739h72.576c5.77,0,10.449-4.678,10.449-10.449
	c0-5.771-4.679-10.449-10.449-10.449H35.561L21.165,135.981c-0.658-6.804,1.573-13.407,6.281-18.594
	c5.047-5.559,12.381-8.748,20.119-8.748h416.87c7.74,0,15.074,3.188,20.121,8.747c4.707,5.185,6.938,11.788,6.285,18.526
	l-14.403,139.244h-76.029c-5.77,0-10.449,4.678-10.449,10.449c0,5.771,4.679,10.449,10.449,10.449h75.88l14.701,167.795
	C491.622,470.639,489.378,477.222,484.672,482.387z"/>
<path d="M184.037,65.834c5.761,0,10.449-4.687,10.449-10.449s-4.687-10.449-10.449-10.449c-5.761,0-10.449,4.687-10.449,10.449
	S178.277,65.834,184.037,65.834z"/>
<path d="M328.059,65.834c5.761,0,10.449-4.687,10.449-10.449s-4.687-10.449-10.449-10.449c-5.761,0-10.449,4.687-10.449,10.449
	S322.298,65.834,328.059,65.834z"/>
<path d="M231.065,283.272c16.836-15.509,25.255-31.989,25.255-49.437c0-16.53-5.869-30.612-17.602-42.244
	c-11.734-11.633-25.969-17.448-42.703-17.448c-8.471,0-16.224,1.454-23.265,4.362c-7.04,2.908-13.522,7.27-19.439,13.086
	c-5.816,5.816-10.204,12.221-13.163,19.209c-2.961,6.99-4.439,14.67-4.439,23.035c0,5.272,4.41,9.49,9.643,9.49
	c5.241,0,9.49-4.251,9.49-9.49c0-11.223,4.03-20.763,12.091-28.622c7.959-8.059,17.653-12.091,29.081-12.091
	c11.224,0,20.916,4.032,29.081,12.091c8.164,7.859,12.245,17.398,12.245,28.622c0,11.226-4.081,20.869-12.245,28.928
	c-8.061,7.959-17.755,11.939-29.081,11.939c-5.166,0-9.414,4.148-9.487,9.324c-0.075,5.31,4.201,9.501,9.487,9.501
	c14.999,0,27.704,5.257,38.112,15.765c10.612,10.408,15.918,23.011,15.918,37.806c0,14.694-5.306,27.297-15.918,37.806
	c-10.51,10.408-23.214,15.612-38.112,15.612c-7.449,0-14.31-1.301-20.585-3.903s-12.169-6.505-17.679-11.709
	c-10.408-10.714-15.611-23.314-15.611-37.806c0-5.239-4.25-9.49-9.49-9.49c-5.232,0-9.643,4.217-9.643,9.49
	c0,19.898,7.092,36.94,21.275,51.122c14.487,14.082,31.734,21.122,51.734,21.122c20.204,0,37.397-7.04,51.58-21.122
	c14.286-13.978,21.428-31.018,21.428-51.122c0-20.1-7.187-37.1-21.275-51.274C244.459,292.514,237.371,286.931,231.065,283.272z"/>
<path d="M351.522,409.852v-226.22c0-3.15-1.494-6.043-4.082-7.851c-2.727-1.906-5.985-1.906-9.08-1.026l-38.112,12.704
	c-4.71,2.355-7.209,7.683-5.068,12.712c0.951,2.235,2.821,4.157,5.067,5.101c2.501,1.051,5.036,0.774,7.5-0.211l24.642-7.959v212.75
	c0,5.272,4.41,9.49,9.642,9.49C347.273,419.341,351.522,415.091,351.522,409.852z"/>
<path d="M321.372,446.17h-4.678c-5.77,0-10.449,4.678-10.449,10.449c0,5.771,4.679,10.449,10.449,10.449h4.678
	c5.77,0,10.449-4.678,10.449-10.449C331.82,450.847,327.141,446.17,321.372,446.17z"/>
<path d="M456.664,446.17h-101.49c-5.77,0-10.449,4.678-10.449,10.449c0,5.771,4.679,10.449,10.449,10.449h101.49
	c5.77,0,10.449-4.678,10.449-10.449C467.113,450.847,462.435,446.17,456.664,446.17z"/>
</svg>